<?xml version="1.0" standalone="no"?>
<!DOCTYPE svg PUBLIC "-//W3C//DTD SVG 20010904//EN"
 "http://www.w3.org/TR/2001/REC-SVG-20010904/DTD/svg10.dtd">
<svg version="1.0" xmlns="http://www.w3.org/2000/svg"
 width="237.000000pt" height="237.000000pt" viewBox="0 0 237.000000 237.000000"
 preserveAspectRatio="xMidYMid meet">

<g transform="translate(0.000000,237.000000) scale(0.100000,-0.100000)"
fill="#000000" stroke="none">
<path d="M939 1934 c-145 -137 -351 -330 -457 -428 -179 -167 -191 -181 -179
-200 32 -47 43 -45 112 24 35 35 67 62 69 59 3 -2 16 -160 30 -349 14 -190 31
-416 37 -502 l12 -158 632 0 633 0 6 63 c3 34 15 253 28 487 12 234 23 427 25
429 2 3 33 -24 68 -59 l65 -64 25 24 c14 13 25 28 25 33 0 6 -125 136 -278
291 -153 155 -348 352 -433 440 l-155 159 -265 -249z m527 -137 c142 -144 278
-283 301 -307 l42 -45 -14 -245 c-7 -135 -19 -342 -25 -460 -6 -118 -13 -230
-16 -247 l-5 -33 -554 0 -554 0 -5 53 c-8 74 -66 889 -66 930 0 31 17 49 202
223 112 104 252 235 311 292 60 56 112 102 116 102 4 0 124 -118 267 -263z"/>
</g>
</svg>
