<svg xmlns="http://www.w3.org/2000/svg" xmlns:xlink="http://www.w3.org/1999/xlink" width="302.363" height="113.386" viewBox="0 0 226.772 85.039"><g data-name="Layer 1"><clipPath id="a"><path transform="matrix(1 0 0 -1 0 85.04)" d="M0 85.039h226.772V0H0z"/></clipPath><g clip-path="url(#a)" stroke-width="1.714" stroke-miterlimit="10" fill="none" stroke="#000"><path d="M11.958 24.052s-3.543 4.587-3.189 12.402c0 0 4.163 9.493 15.236-6.201 0 0-6.821-6.432-12.047-6.201zM36.053 24.052s3.543 4.587 3.189 12.402c0 0-4.163 9.493-15.236-6.201 0 0 6.82-6.432 12.047-6.201z"/><path d="M18.659 30.699c0 1.714-1.562 3.104-3.49 3.104-1.927 0-3.49-1.39-3.49-3.104 0-1.714 1.563-3.104 3.49-3.104 1.928 0 3.49 1.39 3.49 3.104zM36.617 30.699c0 1.714-1.562 3.104-3.49 3.104-1.927 0-3.489-1.39-3.489-3.104 0-1.714 1.562-3.104 3.49-3.104 1.927 0 3.49 1.39 3.49 3.104zM22.885 33.056l1.12 4.051 1.12-4.05s-1.12-1.293-2.24 0zM19.083 59.845V64M16.043 63.247l3.04-1.324 2.682 1.324M29.33 59.845V64M26.351 63.247l2.98-1.324 2.931 1.324"/><path d="M24.005 61.523C6.648 56.349 5.875 39.633 6.047 33.337c.171-6.296 5.743-11.168 5.743-11.168s-9.308 1.43-8.768-6.59c0 0 1.85-2.645 12.803 3.369 0 0 8.292-3.234 16.391.04"/><path d="M23.995 61.523c17.357-5.174 18.13-21.889 17.958-28.186-.171-6.296-5.743-11.168-5.743-11.168s9.308 1.43 8.768-6.59c0 0-1.85-2.645-12.803 3.369 0 0-8.292-3.234-16.391.04"/></g><symbol id="b"><path d="M0 0h.087v.257l.064.074L.373 0h.103L.213.388l.244.286H.349L.143.421A1.7 1.7 0 01.09.349H.087v.325H0V0z"/></symbol><symbol id="c"><path d="M.004 0h.088v.291c0 .015.002.03.006.041.015.049.06.09.118.09.083 0 .112-.065.112-.143V0h.088v.289c0 .166-.104.206-.171.206a.178.178 0 01-.16-.091H.083l-.005.08H0C.003.444.004.403.004.353V0z"/></symbol><symbol id="d"><path d="M.24.506C.106.506 0 .411 0 .249 0 .096.101 0 .232 0c.117 0 .241.078.241.257C.473.405.379.506.24.506M.238.44C.342.44.383.336.383.254.383.145.32.066.236.066.15.066.089.146.089.252c0 .092.045.188.149.188z"/></symbol><symbol id="e"><path d="M0 .484L.146 0h.08l.078.23c.017.052.032.102.044.16H.35C.362.333.376.285.393.231L.467 0h.08l.156.484H.616L.547.241A1.455 1.455 0 01.51.084H.507C.496.133.482.184.464.242L.389.484H.315L.236.237A2.104 2.104 0 01.193.084H.19c-.009.05-.022.1-.036.154L.09.484H0z"/></symbol><symbol id="f"><path d="M0 0h.088v.71H0V0z"/></symbol><symbol id="g"><path d="M.424.236c.001.009.003.023.003.041 0 .089-.042.228-.2.228C.086.505 0 .39 0 .244 0 .098.089 0 .238 0c.077 0 .13.016.161.03L.384.093A.318.318 0 00.25.068C.162.068.086.117.084.236h.34M.085.299C.092.36.131.442.22.442.319.442.343.355.342.299H.085z"/></symbol><symbol id="h"><path d="M.366.721V.432H.364C.342.471.292.506.218.506.1.506 0 .407.001.246.001.099.091 0 .208 0c.079 0 .138.041.165.095h.002L.379.011h.079a1.566 1.566 0 00-.004.125v.585H.366m0-.507A.153.153 0 00.362.176.132.132 0 00.233.071C.138.071.09.152.09.25c0 .107.054.187.145.187A.13.13 0 00.362.335.155.155 0 00.366.298V.214z"/></symbol><symbol id="i"><path d="M.375.693L.371.62H.369C.348.66.302.704.218.704.107.704 0 .611 0 .447 0 .313.086.211.206.211c.075 0 .127.036.154.081h.002V.238C.362.116.296.069.206.069c-.06 0-.11.018-.142.038L.042.04A.312.312 0 01.203 0c.061 0 .129.014.176.058.047.042.069.11.069.221V.56c0 .059.002.098.004.133H.375M.361.415A.153.153 0 00.354.368a.129.129 0 00-.122-.09C.137.278.089.357.089.452c0 .112.06.183.144.183A.127.127 0 00.361.502V.415z"/></symbol><symbol id="k"><path d="M.493.101A.348.348 0 00.351.073C.187.073.092.179.092.344c0 .177.105.278.263.278A.317.317 0 00.491.594l.021.071a.361.361 0 01-.16.03C.143.695 0 .552 0 .341 0 .12.143 0 .333 0c.082 0 .146.016.178.032L.493.101z"/></symbol><symbol id="l"><path d="M.075.61V.494H0V.427h.075V.163c0-.057.009-.1.034-.126C.13.013.163 0 .204 0c.034 0 .061.005.078.012L.278.078A.196.196 0 00.227.072C.178.072.161.106.161.166v.261h.126v.067H.161v.139L.075.61z"/></symbol><use xlink:href="#b" transform="matrix(14.7 0 0 -14 50.117 47.94)"/><use xlink:href="#c" transform="matrix(14.7 0 0 -14 58.129 47.94)"/><use xlink:href="#d" transform="matrix(14.7 0 0 -14 65.832 48.094)"/><use xlink:href="#e" transform="matrix(14.7 0 0 -14 73.505 47.94)"/><use xlink:href="#f" transform="matrix(14.7 0 0 -14 85.133 47.94)"/><use xlink:href="#g" transform="matrix(14.7 0 0 -14 88.087 48.08)"/><use xlink:href="#h" transform="matrix(14.7 0 0 -14 95.437 48.094)"/><use xlink:href="#i" transform="matrix(14.7 0 0 -14 103.743 50.866)"/><use xlink:href="#g" transform="matrix(14.7 0 0 -14 111.96 48.08)"/><use xlink:href="#j" transform="matrix(14.7 0 0 -14 118.766 47.94)"/><use xlink:href="#k" transform="matrix(14.7 0 0 -14 122.412 48.08)"/><use xlink:href="#d" transform="matrix(14.7 0 0 -14 130.804 48.094)"/><use xlink:href="#l" transform="matrix(14.7 0 0 -14 138.58 48.08)"/><use xlink:href="#l" transform="matrix(14.7 0 0 -14 143.446 48.08)"/><use xlink:href="#d" transform="matrix(14.7 0 0 -14 148.518 48.094)"/><use xlink:href="#c" transform="matrix(14.7 0 0 -14 157.044 47.94)"/><use xlink:href="#j" transform="matrix(14.7 0 0 -14 164.188 47.94)"/><clipPath id="m"><path transform="matrix(1 0 0 -1 0 85.04)" d="M0 85.039h226.772V0H0z"/></clipPath><g clip-path="url(#m)" stroke-miterlimit="10" fill="none" stroke="#000"><path d="M50.117 47.94h1.28v-3.598l.94-1.036L55.6 47.94h1.514l-3.866-5.432 3.587-4.004h-1.588l-3.028 3.542c-.25.308-.515.644-.779 1.008h-.044v-4.55h-1.279zM58.188 47.94h1.292v-4.074c0-.21.03-.42.09-.574.22-.686.881-1.26 1.733-1.26 1.22 0 1.648.91 1.648 2.002v3.906h1.292v-4.046c0-2.324-1.528-2.884-2.513-2.884-1.176 0-2 .63-2.353 1.274h-.029l-.072-1.12h-1.148c.045.56.06 1.134.06 1.834zM69.359 41.01c-1.97 0-3.528 1.33-3.528 3.598 0 2.141 1.485 3.486 3.41 3.486 1.72 0 3.543-1.093 3.543-3.599 0-2.07-1.382-3.485-3.425-3.485zm-.03.924c1.53 0 2.132 1.456 2.132 2.603 0 1.527-.926 2.633-2.161 2.633-1.264 0-2.161-1.12-2.161-2.604 0-1.288.662-2.632 2.19-2.632zM73.505 41.163l2.146 6.776h1.176l1.147-3.219c.25-.729.47-1.429.647-2.24h.029c.176.797.382 1.47.632 2.225l1.088 3.234h1.176l2.293-6.776h-1.28l-1.013 3.402c-.235.798-.426 1.512-.544 2.2h-.044a27.509 27.509 0 00-.632-2.213l-1.103-3.389h-1.088l-1.161 3.458c-.235.73-.47 1.456-.632 2.143h-.044c-.132-.7-.323-1.4-.53-2.157l-.94-3.444zM85.132 47.94h1.293V38h-1.293zM94.32 44.776c.015-.126.044-.322.044-.574 0-1.246-.617-3.192-2.94-3.192-2.073 0-3.337 1.61-3.337 3.654 0 2.044 1.308 3.416 3.499 3.416 1.13 0 1.91-.224 2.366-.42l-.22-.882c-.485.196-1.044.35-1.97.35-1.294 0-2.411-.686-2.44-2.352zm-4.983-.882c.103-.854.676-2.002 1.984-2.002 1.456 0 1.808 1.218 1.793 2.002zM100.817 38v4.046h-.03c-.323-.547-1.058-1.036-2.146-1.036-1.735 0-3.204 1.385-3.19 3.64 0 2.057 1.324 3.444 3.043 3.444 1.16 0 2.029-.574 2.426-1.33h.029l.059 1.175h1.16a20.909 20.909 0 01-.058-1.75V38zm0 7.098c0 .195-.015.364-.06.532-.234.924-1.028 1.47-1.895 1.47-1.397 0-2.103-1.134-2.103-2.506 0-1.498.794-2.618 2.132-2.618.97 0 1.676.643 1.867 1.427.044.155.059.365.059.52zM109.255 41.163l-.06 1.022h-.028c-.31-.56-.985-1.175-2.22-1.175-1.632 0-3.205 1.301-3.205 3.597 0 1.876 1.264 3.304 3.029 3.304 1.102 0 1.866-.504 2.263-1.134h.03v.756c0 1.708-.971 2.366-2.293 2.366-.883 0-1.618-.252-2.088-.532l-.324.94c.574.363 1.515.558 2.367.558.897 0 1.897-.195 2.588-.81.69-.589 1.014-1.54 1.014-3.096v-3.934c0-.826.03-1.372.059-1.862zm-.206 3.893c0 .21-.03.448-.103.658-.28.783-1 1.26-1.793 1.26-1.397 0-2.103-1.107-2.103-2.437 0-1.567.883-2.562 2.118-2.562.94 0 1.572.588 1.808 1.302.058.168.073.351.073.561zM118.192 44.776c.015-.126.044-.322.044-.574 0-1.246-.617-3.192-2.94-3.192-2.073 0-3.337 1.61-3.337 3.654 0 2.044 1.308 3.416 3.499 3.416 1.13 0 1.91-.224 2.366-.42l-.22-.882c-.485.196-1.044.35-1.97.35-1.294 0-2.411-.686-2.44-2.352zm-4.983-.882c.103-.854.676-2.002 1.984-2.002 1.456 0 1.808 1.218 1.793 2.002zM129.658 46.665c-.515.238-1.309.393-2.087.393-2.41 0-3.808-1.485-3.808-3.794 0-2.479 1.544-3.893 3.866-3.893.823 0 1.514.168 2 .393l.308-.995c-.338-.167-1.117-.419-2.352-.419-3.072 0-5.174 2.002-5.174 4.956 0 3.093 2.102 4.773 4.895 4.773 1.206 0 2.146-.224 2.617-.447zM134.333 41.01c-1.97 0-3.528 1.33-3.528 3.598 0 2.141 1.485 3.486 3.41 3.486 1.72 0 3.543-1.093 3.543-3.599 0-2.07-1.382-3.485-3.425-3.485zm-.03.924c1.53 0 2.132 1.456 2.132 2.603 0 1.527-.926 2.633-2.161 2.633-1.264 0-2.161-1.12-2.161-2.604 0-1.288.662-2.632 2.19-2.632zM139.684 39.54v1.623h-1.103v.94h1.103v3.695c0 .798.132 1.4.5 1.763.309.336.794.518 1.396.518.5 0 .897-.069 1.147-.168l-.06-.924a3.02 3.02 0 01-.75.084c-.72 0-.97-.475-.97-1.315v-3.654h1.853v-.939h-1.852v-1.945zM144.549 39.54v1.623h-1.103v.94h1.103v3.695c0 .798.132 1.4.5 1.763.309.336.794.518 1.396.518.5 0 .897-.069 1.147-.168l-.06-.924a3.02 3.02 0 01-.75.084c-.72 0-.97-.475-.97-1.315v-3.654h1.853v-.939h-1.852v-1.945zM152.046 41.01c-1.97 0-3.528 1.33-3.528 3.598 0 2.141 1.484 3.486 3.41 3.486 1.72 0 3.543-1.093 3.543-3.599 0-2.07-1.382-3.485-3.425-3.485zm-.03.924c1.529 0 2.132 1.456 2.132 2.603 0 1.527-.926 2.633-2.162 2.633-1.263 0-2.16-1.12-2.16-2.604 0-1.288.66-2.632 2.19-2.632zM157.102 47.94h1.294v-4.074c0-.21.03-.42.089-.574a1.826 1.826 0 011.733-1.26c1.22 0 1.648.91 1.648 2.002v3.906h1.293v-4.046c0-2.324-1.53-2.884-2.513-2.884-1.177 0-2 .63-2.353 1.274h-.03l-.073-1.12h-1.147c.044.56.06 1.134.06 1.834z"/></g><symbol id="n"><path d="M.399.212L.471 0h.093l-.23.674H.229L0 0h.09l.07.212h.239M.178.28l.066.195c.013.041.024.082.034.122H.28C.29.558.3.518.315.474L.381.28H.178z"/></symbol><symbol id="o"><path d="M.004 0h.087v.263h.002A.17.17 0 01.242.187c.114 0 .22.086.22.26 0 .147-.088.246-.205.246A.19.19 0 01.085.599H.083L.079.682H0C.002.636.004.586.004.524V0m.087.478c0 .012.003.025.006.036A.14.14 0 00.23.623C.323.623.374.54.374.443.374.332.32.256.227.256a.136.136 0 00-.136.139v.083z"/></symbol><symbol id="p"><path d="M.386.011a.681.681 0 00-.008.116v.181c0 .097-.036.198-.184.198A.3.3 0 01.035.463l.02-.058a.241.241 0 00.126.036c.099 0 .11-.072.11-.112v-.01C.104.32 0 .256 0 .139 0 .069.05 0 .148 0a.18.18 0 01.148.072h.003L.306.011h.08M.293.174A.092.092 0 00.288.146.12.12 0 00.171.065C.126.065.088.092.088.149c0 .094.109.111.205.109V.174z"/></symbol><symbol id="q"><path d="M.004 0h.087v.258c0 .015.002.029.004.041.012.066.056.113.118.113a.132.132 0 00.03-.003v.083a.095.095 0 01-.025.003C.159.495.106.454.084.389H.08L.077.484H0C.003.439.004.39.004.333V0z"/></symbol><use xlink:href="#n" transform="matrix(14.7 0 0 -14 167.671 47.94)"/><use xlink:href="#o" transform="matrix(14.7 0 0 -14 177.27 50.712)"/><use xlink:href="#o" transform="matrix(14.7 0 0 -14 185.635 50.712)"/><use xlink:href="#p" transform="matrix(14.7 0 0 -14 193.5 48.094)"/><use xlink:href="#q" transform="matrix(14.7 0 0 -14 201.084 47.94)"/><use xlink:href="#g" transform="matrix(14.7 0 0 -14 205.287 48.08)"/><use xlink:href="#f" transform="matrix(14.7 0 0 -14 213.166 47.94)"/><use xlink:href="#j" transform="matrix(13.65 0 0 -13 215.561 47.94)"/></g></svg>